<?xml version="1.0"?>
<svg
   viewBox="0 0 512 512"
   version="1.1"
   xmlns="http://www.w3.org/2000/svg"
>
   <path
      fill="#f03c2e"
      stroke-width="5.54047"
      d="M 499.74046,234.56996 277.45813,12.30425 a 32.788306,32.788306 0 0 0 -46.38455,0 l -46.14075,46.162921 58.54026,58.540249 a 38.949273,38.949273 0 0 1 40.05735,9.3301 38.971434,38.971434 0 0 1 9.247,40.31776 l 56.44043,56.4238 a 38.938192,38.938192 0 0 1 40.3233,9.26362 39.004677,39.004677 0 0 1 0,55.16613 39.060082,39.060082 0 0 1 -55.21046,0 39.026838,39.026838 0 0 1 -8.46579,-42.43975 l -52.63415,-52.61753 v 138.49431 a 39.004677,39.004677 0 0 1 10.30522,62.55153 39.004677,39.004677 0 0 1 -55.16614,0 39.004677,39.004677 0 0 1 0,-55.17167 39.115485,39.115485 0 0 1 12.76517,-8.52673 V 190.03038 A 39.054541,39.054541 0 0 1 219.97055,138.86999 L 162.25028,81.138631 9.8217746,233.52836 a 32.82709,32.82709 0 0 0 0,46.37899 L 232.11519,502.20076 a 32.82709,32.82709 0 0 0 46.37346,0 L 499.74046,280.94895 a 32.82709,32.82709 0 0 0 0,-46.37899"
   />
   <path
      fill="#0078d4"
      stroke-width="0.987404"
      d="M 496.19801,0.10950645 H 322.4153 A 15.798428,15.798428 0 0 0 306.61686,15.907934 V 173.89222 a 15.640444,15.640444 0 0 0 9.13347,14.31732 15.847799,15.847799 0 0 0 6.66497,1.4811 15.689814,15.689814 0 0 0 10.12087,-3.73237 l 0.0888,-0.0692 32.24853,-27.79536 h 131.32444 a 15.798428,15.798428 0 0 0 15.79842,-15.79843 V 15.907934 A 15.798428,15.798428 0 0 0 496.19801,0.10950645 Z M 365.86096,90.950467 a 11.848821,11.848821 0 1 1 11.84883,-11.848822 11.848821,11.848821 0 0 1 -11.84883,11.848822 z m 43.44569,0 a 11.848821,11.848821 0 1 1 11.84882,-11.848822 11.848821,11.848821 0 0 1 -11.84882,11.848822 z m 43.44568,0 a 11.848821,11.848821 0 1 1 11.84882,-11.848822 11.848821,11.848821 0 0 1 -11.84882,11.848822 z"
   />
</svg>