<svg
   width="92"
   height="92"
   viewBox="0 0 92 92"
   xmlns="http://www.w3.org/2000/svg"
>

   <path
      fill="#f03c2e"
      d="M90.156 41.965 50.036 1.848a5.918 5.918 0 0 0-8.372 0l-8.328 8.332 10.566 10.566a7.03 7.03 0 0 1 7.23 1.684 7.034 7.034 0 0 1 1.669 7.277l10.187 10.184a7.028 7.028 0 0 1 7.278 1.672 7.04 7.04 0 0 1 0 9.957 7.05 7.05 0 0 1-9.965 0 7.044 7.044 0 0 1-1.528-7.66l-9.5-9.497V59.36a7.04 7.04 0 0 1 1.86 11.29 7.04 7.04 0 0 1-9.957 0 7.04 7.04 0 0 1 0-9.958 7.06 7.06 0 0 1 2.304-1.539V33.926a7.049 7.049 0 0 1-3.82-9.234L29.242 14.272 1.73 41.777a5.925 5.925 0 0 0 0 8.371L41.852 90.27a5.925 5.925 0 0 0 8.37 0l39.934-39.934a5.925 5.925 0 0 0 0-8.371"
   />
   <path
      stroke="#0078d4"
      stroke-width="2.5"
      d="m 56.2342,7.4017237 c 0,-3.4031747 2.757533,-6.1607076 6.160707,-6.1607076 h 22.178547 c 3.403175,0 6.160708,2.7575329 6.160708,6.1607076 V 19.723138 c 0,3.403175 -2.757533,6.160707 -6.160708,6.160707 h -9.393846 l -7.548099,6.604281 c -1.562355,1.365211 -4.00446,0.256284 -4.00446,-1.818643 v -4.785638 h -1.232142 c -3.403174,0 -6.160707,-2.757532 -6.160707,-6.160707 z m 6.160707,-3.6964245 c -2.040426,0 -3.696424,1.6559982 -3.696424,3.6964245 V 19.723138 c 0,2.040426 1.655998,3.696425 3.696424,3.696425 h 3.696426 v 7.141493 l 8.161704,-7.141493 h 10.320417 c 2.040427,0 3.696425,-1.655999 3.696425,-3.696425 V 7.4017237 c 0,-2.0404263 -1.655998,-3.6964245 -3.696425,-3.6964245 z m 20.946406,6.1607082 c 0,-0.680143 -0.552,-1.2321423 -1.232142,-1.2321423 h -17.24998 c -0.680143,0 -1.232142,0.5519993 -1.232142,1.2321423 0,0.6801416 0.551999,1.2321406 1.232142,1.2321406 h 17.24998 c 0.680142,0 1.232142,-0.551999 1.232142,-1.2321406 z m -4.928566,7.3928476 c 0,-0.680142 -0.551999,-1.232141 -1.232142,-1.232141 H 64.859191 c -0.680143,0 -1.232142,0.551999 -1.232142,1.232141 0,0.680143 0.551999,1.232141 1.232142,1.232141 h 12.321414 c 0.680143,0 1.232142,-0.551998 1.232142,-1.232141 z"
   />
</svg>