<?xml version="1.0"?>
<svg
   viewBox="0 0 512 512"
   version="1.1"
   xmlns="http://www.w3.org/2000/svg"
>
   <path
      fill="#f03c2e"
      stroke-width="5.14691"
      d="M 464.25825,254.26199 257.76551,47.784683 a 30.459225,30.459225 0 0 0 -43.08968,0 l -42.86319,42.883789 54.38192,54.381908 a 36.182554,36.182554 0 0 1 37.21191,8.66734 36.20314,36.20314 0 0 1 8.59016,37.45383 l 52.43124,52.41581 a 36.17226,36.17226 0 0 1 37.45898,8.60558 36.234022,36.234022 0 0 1 0,51.24746 36.285492,36.285492 0 0 1 -51.28864,0 36.254609,36.254609 0 0 1 -7.86443,-39.42509 l -48.89535,-48.87989 v 128.65651 a 36.234022,36.234022 0 0 1 9.5732,58.10825 36.234022,36.234022 0 0 1 -51.24747,0 36.234022,36.234022 0 0 1 0,-51.25261 36.336959,36.336959 0 0 1 11.85841,-7.92104 V 212.88623 A 36.280344,36.280344 0 0 1 204.3615,165.35996 L 150.74132,111.72949 9.1404108,253.29438 a 30.495254,30.495254 0 0 0 0,43.08451 L 215.64346,502.88193 a 30.495254,30.495254 0 0 0 43.07937,0 L 464.25825,297.3465 a 30.495254,30.495254 0 0 0 0,-43.08451"
   />
   <path
      fill="#4daafc"
      stroke-width="0.987404"
      d="M 496.19801,0.10950645 H 322.4153 A 15.798428,15.798428 0 0 0 306.61686,15.907934 V 173.89222 a 15.640444,15.640444 0 0 0 9.13347,14.31732 15.847799,15.847799 0 0 0 6.66497,1.4811 15.689814,15.689814 0 0 0 10.12087,-3.73237 l 0.0888,-0.0692 32.24853,-27.79536 h 131.32444 a 15.798428,15.798428 0 0 0 15.79842,-15.79843 V 15.907934 A 15.798428,15.798428 0 0 0 496.19801,0.10950645 Z M 365.86096,90.950467 a 11.848821,11.848821 0 1 1 11.84883,-11.848822 11.848821,11.848821 0 0 1 -11.84883,11.848822 z m 43.44569,0 a 11.848821,11.848821 0 1 1 11.84882,-11.848822 11.848821,11.848821 0 0 1 -11.84882,11.848822 z m 43.44568,0 a 11.848821,11.848821 0 1 1 11.84882,-11.848822 11.848821,11.848821 0 0 1 -11.84882,11.848822 z"
   />
</svg>